<svg height="512pt" viewBox="0 -3 512 511" width="512pt" xmlns="http://www.w3.org/2000/svg"><path d="m179.199219 290.632812c13.746093-.003906 27.457031-1.296874 40.960937-3.863281-20.519531 21.195313-32.128906 49.457031-32.425781 78.957031.425781 30.914063 13.132813 60.386719 35.320313 81.921876l-12.921876 35.515624c-1.890624 5.222657-1.132812 11.039063 2.042969 15.597657 3.171875 4.558593 8.359375 7.296875 13.914063 7.339843 2.199218-.007812 4.371094-.433593 6.410156-1.257812l49.398438-19.746094c21.738281 8.097656 44.769531 12.179688 67.96875 12.042969 89.402343 0 162.132812-58.949219 162.132812-131.414063 0-72.464843-72.730469-131.414062-162.132812-131.414062-10.273438.054688-20.527344.910156-30.667969 2.5625l-.214844-.574219c24.714844-23.777343 38.90625-56.441406 39.414063-90.734375 0-79.992187-80.382813-145.066406-179.199219-145.066406-98.816407 0-179.199219 65.074219-179.199219 145.066406 0 79.992188 80.382812 145.066406 179.199219 145.066406zm170.667969-39.253906c79.992187 0 145.066406 51.296875 145.066406 114.347656 0 63.054688-65.074219 114.347657-145.066406 114.347657-22.191407.144531-44.207032-3.96875-64.855469-12.109375-2.03125-.804688-4.296875-.804688-6.332031 0l-52.546876 21 14.8125-40.703125c1.171876-3.21875.304688-6.824219-2.199218-9.15625-21.070313-18.644531-33.378906-45.25-33.945313-73.378907 0-34.132812 19.113281-65.816406 52.359375-87.664062l54.734375 21.957031c2.042969.824219 4.226563 1.25 6.433594 1.253907 5.558594-.023438 10.761719-2.757813 13.933594-7.324219 3.175781-4.5625 3.925781-10.390625 2.015625-15.613281l-9.15625-25.078126c8.195312-1.1875 16.464844-1.816406 24.746094-1.878906zm-170.667969-233.8125c89.40625 0 162.132812 57.421875 162.132812 128-.636719 31.535156-14.445312 61.363282-38.074219 82.253906-2.503906 2.332032-3.371093 5.9375-2.203124 9.15625l17.1875 47.171876-60.269532-24.132813c-2.035156-.820313-4.308594-.820313-6.339844 0-23.054687 9.109375-47.644531 13.710937-72.433593 13.550781-89.402344 0-162.132813-57.421875-162.132813-128s72.730469-128 162.132813-128zm0 0"/><path d="m93.867188 179.699219c18.851562 0 34.132812-15.28125 34.132812-34.132813 0-18.851562-15.28125-34.132812-34.132812-34.132812-18.851563 0-34.132813 15.28125-34.132813 34.132812 0 18.851563 15.28125 34.132813 34.132813 34.132813zm0-51.199219c9.425781 0 17.066406 7.640625 17.066406 17.066406 0 9.425782-7.640625 17.066406-17.066406 17.066406-9.425782 0-17.066407-7.640624-17.066407-17.066406 0-9.425781 7.640625-17.066406 17.066407-17.066406zm0 0"/><path d="m179.199219 179.699219c18.851562 0 34.132812-15.28125 34.132812-34.132813 0-18.851562-15.28125-34.132812-34.132812-34.132812-18.851563 0-34.132813 15.28125-34.132813 34.132812 0 18.851563 15.28125 34.132813 34.132813 34.132813zm0-51.199219c9.425781 0 17.066406 7.640625 17.066406 17.066406 0 9.425782-7.640625 17.066406-17.066406 17.066406s-17.066407-7.640624-17.066407-17.066406c0-9.425781 7.640626-17.066406 17.066407-17.066406zm0 0"/><path d="m264.535156 179.699219c18.847656 0 34.132813-15.28125 34.132813-34.132813 0-18.851562-15.285157-34.132812-34.132813-34.132812-18.851562 0-34.136718 15.28125-34.136718 34.132812 0 18.851563 15.285156 34.132813 34.136718 34.132813zm0-51.199219c9.425782 0 17.066406 7.640625 17.066406 17.066406 0 9.425782-7.640624 17.066406-17.066406 17.066406-9.425781 0-17.070312-7.640624-17.070312-17.066406 0-9.425781 7.644531-17.066406 17.070312-17.066406zm0 0"/><path d="m315.734375 367.433594c0 18.851562 15.28125 34.132812 34.132813 34.132812 18.851562 0 34.132812-15.28125 34.132812-34.132812 0-18.851563-15.28125-34.132813-34.132812-34.132813-18.851563 0-34.132813 15.28125-34.132813 34.132813zm34.132813-17.066406c9.425781 0 17.066406 7.640624 17.066406 17.066406 0 9.425781-7.640625 17.066406-17.066406 17.066406-9.425782 0-17.066407-7.640625-17.066407-17.066406 0-9.425782 7.640625-17.066406 17.066407-17.066406zm0 0"/><path d="m435.199219 401.566406c18.851562 0 34.132812-15.28125 34.132812-34.132812 0-18.851563-15.28125-34.132813-34.132812-34.132813-18.851563 0-34.132813 15.28125-34.132813 34.132813 0 18.851562 15.28125 34.132812 34.132813 34.132812zm0-51.199218c9.425781 0 17.066406 7.640624 17.066406 17.066406 0 9.425781-7.640625 17.066406-17.066406 17.066406s-17.066407-7.640625-17.066407-17.066406c0-9.425782 7.640626-17.066406 17.066407-17.066406zm0 0"/><path d="m264.535156 333.300781c-18.851562 0-34.136718 15.28125-34.136718 34.132813 0 18.851562 15.285156 34.132812 34.136718 34.132812 18.847656 0 34.132813-15.28125 34.132813-34.132812 0-18.851563-15.285157-34.132813-34.132813-34.132813zm0 51.199219c-9.425781 0-17.070312-7.640625-17.070312-17.066406 0-9.425782 7.644531-17.066406 17.070312-17.066406 9.425782 0 17.066406 7.640624 17.066406 17.066406 0 9.425781-7.640624 17.066406-17.066406 17.066406zm0 0"/></svg>